<?xml version="1.0" encoding="UTF-8"?>
<svg id="Capa_1" data-name="Capa 1" xmlns="http://www.w3.org/2000/svg" viewBox="0 0 1080.31 1080">
  <defs>
    <style>
      .cls-1 {
        fill: #0c1e36;
      }

      .cls-2 {
        fill: #e8e7e5;
      }
    </style>
  </defs>
  <path class="cls-2" d="M884.48,512.47c-.15-.18-.31-.35-.48-.52l-149.18-149.86c-1.12-1.12-2.54-1.88-4.09-2.19-2.62-.52-5.33.31-7.21,2.22l-166.24,168.69c-3,3.04-3.06,7.9-.15,11.02,7.66,8.2,19.75,22.06,27.95,27.69,3.1,2.14,7.3,1.7,9.99-.93l129.13-126.56c2.14-2.1,5.28-2.82,8.12-1.85l1.48.5c1.3.44,2.46,1.22,3.38,2.24,19.93,22.31,46.42,42.36,66.08,64.1,21.52,23.8,22.61,30.59,1.63,55.93-69.87,84.4-171.16,159.96-243.91,243.89-.15.18-.32.35-.49.52-10.74,10.48-24.67,14.02-37.22,4.16-.38-.3-.72-.64-1.04-1-73.86-84.39-173.65-160.1-244.94-244.95-12.79-15.22-25.6-29.7-9.35-48.21.14-.15.28-.31.43-.45l259.13-257.65c.85-.85,1.88-1.5,3.02-1.89,7.52-2.6,16.26-2.27,22.91,2.32.4.28.77.61,1.11.96,23.08,23.76,47.46,45.91,71.6,68.4,2.16,2.01,6.05,5.7,7.01,6.27,7.31,4.34,34.4-23.92,37.34-29.65,1.04-2.01,1.74-3.21,0-5.18l-106.99-106.73c-.19-.19-.4-.38-.61-.55-34.63-28.54-54.91,9.59-76.53,30.26-98.21,93.86-193.55,191.21-290.03,287.13-16.19,16.2-12.74,39.3,2.39,54.73.15.16.32.31.48.45,106.38,93.27,202.08,219.24,309.17,309.22,18.44,15.49,31.6,23.2,53.15,6.91.34-.26.66-.54.95-.85,107.22-111.89,225.18-214.71,327.46-330.6.52-.59.96-1.24,1.28-1.95,5.83-13.02,2.18-25.52-6.76-36.03Z"/>
  <path class="cls-1" d="M866.41,165.78c-77.17-66.34-166.06-103.48-256.27-115.39-22.86-3.24-46.22-4.92-69.98-4.92-103.18,0-198.97,31.61-278.24,85.65C146.38,207.19,61.29,330.74,45,487.18c-13.96,134.03,26.31,255.14,99.18,349.11,90.2,120.36,233.99,198.24,395.98,198.24,105.5,0,203.28-33.04,283.57-89.33,261.91-180.7,292.77-564.44,42.69-779.42ZM891.24,548.5c-.32.71-.76,1.37-1.28,1.95-102.28,115.89-220.24,218.72-327.46,330.6-.29.31-.61.59-.95.85-21.54,16.29-34.71,8.58-53.15-6.91-107.09-89.98-202.78-215.95-309.17-309.22-.17-.15-.33-.3-.48-.45-15.13-15.43-18.58-38.52-2.39-54.73,96.48-95.92,191.82-193.27,290.03-287.13,21.62-20.66,41.9-58.8,76.53-30.26.21.17.41.36.61.55l106.99,106.73c1.74,1.97,1.04,3.17,0,5.18-2.95,5.73-30.03,33.99-37.34,29.65-.97-.57-4.86-4.26-7.01-6.27-24.14-22.49-48.52-44.64-71.6-68.4-.34-.35-.71-.68-1.11-.96-6.66-4.59-15.4-4.91-22.91-2.32-1.14.39-2.17,1.04-3.02,1.89l-259.13,257.65c-.15.15-.29.3-.43.45-16.25,18.51-3.44,32.99,9.35,48.21,71.3,84.85,171.08,160.56,244.94,244.95.32.36.66.7,1.04,1,12.55,9.86,26.48,6.32,37.22-4.16.17-.17.33-.34.49-.52,72.74-83.93,174.04-159.49,243.91-243.89,20.98-25.34,19.88-32.13-1.63-55.93-19.66-21.75-46.15-41.79-66.08-64.1-.92-1.03-2.07-1.8-3.38-2.24l-1.48-.5c-2.84-.96-5.98-.25-8.12,1.85l-129.13,126.56c-2.69,2.64-6.89,3.07-9.99.93-8.2-5.64-20.29-19.5-27.95-27.69-2.92-3.12-2.85-7.98.15-11.02l166.24-168.69c1.88-1.91,4.59-2.74,7.21-2.22,1.55.31,2.98,1.07,4.09,2.19l149.18,149.86c.17.17.33.34.48.52,8.94,10.51,12.59,23.01,6.76,36.03Z"/>
</svg>